<svg width="57" height="61" viewBox="0 0 57 61" fill="none" xmlns="http://www.w3.org/2000/svg">
<path d="M6.09704 13.8476H31.8738C32.0022 13.8476 32.1209 13.7825 32.1904 13.6749C36.87 6.43336 46.921 0.913586 56.1246 0.864456C56.2113 0.864458 56.294 0.864461 56.373 0.864463C56.2903 0.864015 56.2075 0.864014 56.1246 0.864456C53.3402 0.86439 46.5048 0.864492 29.6507 0.864463C17.3741 0.405044 8.37402 9.45568 5.5481 12.7068C5.14562 13.1699 5.4826 13.8476 6.09704 13.8476Z" fill="#FBCB59"/>
<path d="M30.3311 17.4268C30.4597 17.1635 30.2771 16.8476 29.9914 16.8476H17.5917C14.8175 16.8476 12.1402 17.9001 10.0689 19.805L0.626946 28.4884C0.109676 28.9641 0.435664 29.8476 1.12846 29.8476H26.8814C27.079 29.8476 27.2426 29.6923 27.2592 29.4891C27.4372 27.3089 28.0757 22.0458 30.3311 17.4268Z" fill="#FBCB59"/>
<path d="M21.4057 32.8476H26.6111C26.8111 32.8476 26.9727 33.0166 26.9792 33.2256C27.1053 37.2793 29.1858 42.9751 30.3284 45.2472C30.4616 45.5121 30.2809 45.8476 29.9948 45.8476H5.09875C4.43096 45.8476 4.11899 44.9827 4.62037 44.5213L14.2301 35.679C16.2133 33.8542 18.7643 32.8476 21.4057 32.8476Z" fill="#FBCB59"/>
<path d="M14.6681 56.7804C16.1909 57.7417 20.3617 59.8228 28.6701 60.4695C39.6005 61.3202 56.373 60.4695 56.373 60.4695C42.6434 60.0614 34.8667 51.4156 33.1706 49.3079C32.9412 49.0227 32.5964 48.8476 32.2274 48.8476H24.2147C23.3195 48.8476 22.4536 49.1619 21.7719 49.7344L14.6278 55.7333C14.2801 56.0253 14.2834 56.5376 14.6681 56.7804Z" fill="#FBCB59"/>
</svg>
