<svg width="82" height="60" viewBox="0 0 82 60" fill="none" xmlns="http://www.w3.org/2000/svg">
<path d="M5.72399 13H31.5008C31.6291 13 31.7479 12.9349 31.8174 12.8273C36.4969 5.58576 46.5479 0.0659904 55.7515 0.016861C55.8382 0.0168631 55.921 0.0168654 56 0.0168678C55.9172 0.0164198 55.8344 0.0164185 55.7515 0.016861C52.9671 0.0167943 46.1317 0.0168969 29.2777 0.0168678C17.0011 -0.442551 8.00097 8.60809 5.17506 11.8592C4.77257 12.3223 5.10955 13 5.72399 13Z" fill="#FBCB59"/>
<path d="M29.9581 16.5792C30.0867 16.3159 29.904 16 29.6183 16H17.2186C14.4445 16 11.7671 17.0525 9.69586 18.9574L0.253899 27.6408C-0.263371 28.1165 0.0626183 29 0.755415 29H26.5084C26.7059 29 26.8696 28.8447 26.8862 28.6415C27.0641 26.4613 27.7027 21.1982 29.9581 16.5792Z" fill="#FBCB59"/>
<path d="M21.0327 32H26.2381C26.4381 32 26.5997 32.169 26.6062 32.378C26.7322 36.4317 28.8128 42.1275 29.9554 44.3996C30.0886 44.6645 29.9079 45 29.6217 45H4.7257C4.05791 45 3.74594 44.1351 4.24733 43.6737L13.8571 34.8314C15.8403 33.0066 18.3912 32 21.0327 32Z" fill="#FBCB59"/>
<path d="M14.295 55.9328C15.8179 56.8941 19.9886 58.9752 28.297 59.6219C39.2275 60.4726 56 59.6219 56 59.6219C42.2703 59.2138 34.4937 50.568 32.7976 48.4603C32.5681 48.1751 32.2233 48 31.8543 48H23.8416C22.9465 48 22.0806 48.3143 21.3989 48.8868L14.2548 54.8857C13.907 55.1777 13.9104 55.69 14.295 55.9328Z" fill="#FBCB59"/>
<path d="M76.2715 30.2352H77.7239V28.2573H80.1689V30.2352H81.7818V32.0671H80.1689V35.4317C80.1689 35.7334 80.2516 35.9402 80.417 36.0521C80.5825 36.1592 80.8184 36.2127 81.125 36.2127C81.2709 36.2127 81.4096 36.2102 81.541 36.2054C81.6724 36.2005 81.7794 36.1908 81.8621 36.1762L81.8548 38.0519C81.6505 38.1297 81.4291 38.1857 81.1907 38.2198C80.9571 38.2587 80.6798 38.2781 80.3586 38.2781C79.9645 38.2781 79.6045 38.2295 79.2785 38.1322C78.9573 38.0397 78.68 37.8938 78.4464 37.6943C78.2177 37.4899 78.0402 37.232 77.9136 36.9206C77.7871 36.6092 77.7239 36.237 77.7239 35.804V32.0671H76.2715V30.2352Z" fill="#2F2F2F"/>
<path d="M70.3652 30.2352H72.6935L72.7372 31.0527C72.9708 30.7413 73.2603 30.5028 73.6058 30.3374C73.9561 30.172 74.3672 30.0893 74.8392 30.0893C74.9657 30.0893 75.1044 30.0966 75.2552 30.1112C75.4061 30.1209 75.5253 30.1428 75.6128 30.1768L75.591 32.2131C75.4547 32.2034 75.3063 32.1912 75.1457 32.1766C74.9803 32.162 74.8246 32.1547 74.6786 32.1547C74.1921 32.1547 73.7955 32.2423 73.489 32.4175C73.1873 32.5878 72.9611 32.8189 72.8102 33.1108V38.1322H70.3652V30.2352Z" fill="#2F2F2F"/>
<path d="M60.3457 34.1691C60.3457 33.5366 60.4454 32.9673 60.6449 32.4613C60.8493 31.9552 61.1437 31.5271 61.5281 31.1767C61.9173 30.8264 62.3941 30.5588 62.9586 30.3739C63.5278 30.1841 64.1774 30.0893 64.9073 30.0893C65.5349 30.0893 66.0945 30.1744 66.5859 30.3447C67.0773 30.515 67.4909 30.7632 67.8267 31.0892C68.1673 31.4103 68.4276 31.8068 68.6076 32.2788C68.7876 32.7459 68.8776 33.2787 68.8776 33.8772V34.9501H62.8637C62.9805 35.388 63.2335 35.7115 63.6227 35.9208C64.012 36.13 64.5375 36.2346 65.1992 36.2346C65.6371 36.2346 66.0531 36.1786 66.4472 36.0667C66.8462 35.9548 67.182 35.7553 67.4544 35.4683L68.7025 36.9207C68.5468 37.0958 68.3521 37.2661 68.1186 37.4315C67.885 37.5921 67.615 37.7356 67.3085 37.8622C67.0019 37.9887 66.6565 38.0884 66.2721 38.1614C65.8926 38.2392 65.479 38.2782 65.0313 38.2782C64.2918 38.2782 63.63 38.1979 63.0461 38.0373C62.4671 37.8768 61.9757 37.6359 61.5718 37.3148C61.1729 36.9936 60.8688 36.5947 60.6595 36.1178C60.4503 35.6361 60.3457 35.0766 60.3457 34.4392V34.1691ZM66.4618 33.4101V33.2057C66.4618 32.87 66.3353 32.5951 66.0823 32.381C65.8342 32.1669 65.4473 32.0599 64.9219 32.0599C64.6251 32.0599 64.3623 32.0939 64.1336 32.162C63.9098 32.2253 63.7152 32.3177 63.5497 32.4394C63.3843 32.5562 63.2481 32.6973 63.141 32.8627C63.034 33.0281 62.9513 33.2106 62.8929 33.4101H66.4618Z" fill="#2F2F2F"/>
<path d="M50.5723 41.1684V30.2352H52.8348L52.9297 31.0454C53.2216 30.7388 53.5671 30.5028 53.9661 30.3374C54.365 30.172 54.8297 30.0893 55.3601 30.0893C55.9634 30.0893 56.4938 30.1841 56.9511 30.3739C57.4134 30.5637 57.8002 30.8337 58.1116 31.184C58.423 31.5344 58.659 31.9552 58.8196 32.4467C58.9801 32.9381 59.0604 33.4831 59.0604 34.0815V34.2348C59.0604 34.809 58.9801 35.3442 58.8196 35.8405C58.659 36.3319 58.423 36.7577 58.1116 37.1177C57.8002 37.4778 57.4158 37.7624 56.9584 37.9716C56.5011 38.176 55.9756 38.2782 55.382 38.2782C54.8662 38.2782 54.4161 38.1979 54.0317 38.0373C53.6474 37.8719 53.3092 37.6481 53.0173 37.3659V41.1684H50.5723ZM54.6886 32.1255C54.2945 32.1255 53.9588 32.1766 53.6814 32.2788C53.4041 32.3761 53.1827 32.5343 53.0173 32.7532V35.5704C53.1827 35.7894 53.4016 35.9548 53.6741 36.0667C53.9515 36.1786 54.2969 36.2346 54.7105 36.2346C55.0511 36.2346 55.343 36.1835 55.5863 36.0813C55.8296 35.9743 56.0267 35.8307 56.1775 35.6507C56.3283 35.4707 56.4378 35.259 56.5059 35.0157C56.5789 34.7725 56.6154 34.5121 56.6154 34.2348V34.0815C56.6154 33.7896 56.5789 33.5244 56.5059 33.286C56.4378 33.0427 56.3259 32.8359 56.1702 32.6656C56.0145 32.4953 55.815 32.364 55.5717 32.2715C55.3284 32.1742 55.0341 32.1255 54.6886 32.1255Z" fill="#2F2F2F"/>
<path d="M40.6758 38.1322L43.5295 34.0669L40.7853 30.2352H43.4419L45.0257 32.6437L46.6459 30.2352H49.2953L46.5438 34.0669L49.3975 38.1322H46.7481L45.033 35.4682L43.3397 38.1322H40.6758Z" fill="#2F2F2F"/>
<path d="M31.4414 34.1691C31.4414 33.5366 31.5412 32.9673 31.7406 32.4613C31.945 31.9552 32.2394 31.5271 32.6238 31.1767C33.013 30.8264 33.4898 30.5588 34.0543 30.3739C34.6235 30.1841 35.2731 30.0893 36.003 30.0893C36.6306 30.0893 37.1902 30.1744 37.6816 30.3447C38.173 30.515 38.5866 30.7632 38.9224 31.0892C39.263 31.4103 39.5233 31.8068 39.7033 32.2788C39.8833 32.7459 39.9733 33.2787 39.9733 33.8772V34.9501H33.9594C34.0762 35.388 34.3292 35.7115 34.7184 35.9208C35.1077 36.13 35.6332 36.2346 36.2949 36.2346C36.7328 36.2346 37.1488 36.1786 37.5429 36.0667C37.9419 35.9548 38.2777 35.7553 38.5501 35.4683L39.7982 36.9207C39.6425 37.0958 39.4478 37.2661 39.2143 37.4315C38.9807 37.5921 38.7107 37.7356 38.4042 37.8622C38.0976 37.9887 37.7522 38.0884 37.3678 38.1614C36.9883 38.2392 36.5747 38.2782 36.127 38.2782C35.3875 38.2782 34.7257 38.1979 34.1418 38.0373C33.5628 37.8768 33.0714 37.6359 32.6676 37.3148C32.2686 36.9936 31.9645 36.5947 31.7552 36.1178C31.546 35.6361 31.4414 35.0766 31.4414 34.4392V34.1691ZM37.5575 33.4101V33.2057C37.5575 32.87 37.431 32.5951 37.178 32.381C36.9299 32.1669 36.5431 32.0599 36.0176 32.0599C35.7208 32.0599 35.458 32.0939 35.2293 32.162C35.0055 32.2253 34.8109 32.3177 34.6454 32.4394C34.48 32.5562 34.3438 32.6973 34.2367 32.8627C34.1297 33.0281 34.047 33.2106 33.9886 33.4101H37.5575Z" fill="#2F2F2F"/>
<path d="M51.0176 20.5195H53.3239L53.3896 21.3515C53.7253 21.0304 54.1219 20.7871 54.5792 20.6217C55.0366 20.4562 55.5451 20.3735 56.1046 20.3735C56.5571 20.3735 56.9683 20.427 57.3381 20.5341C57.7079 20.6363 58.0241 20.8114 58.2869 21.0596C58.5545 21.3028 58.7588 21.624 58.8999 22.023C59.0459 22.4171 59.1189 22.9061 59.1189 23.49V28.4164H56.6593V23.4827C56.6593 23.2588 56.6253 23.0764 56.5571 22.9353C56.4939 22.7942 56.3966 22.6847 56.2652 22.6068C56.1338 22.529 55.9733 22.4779 55.7835 22.4536C55.5937 22.4244 55.3748 22.4098 55.1266 22.4098C54.7471 22.4098 54.4162 22.4682 54.134 22.5849C53.8567 22.6969 53.6329 22.855 53.4626 23.0593V28.4164H51.0176V20.5195Z" fill="#2F2F2F"/>
<path d="M43.4294 20.5195V25.643C43.4294 25.7841 43.4634 25.9082 43.5315 26.0152C43.6045 26.1223 43.7018 26.2147 43.8235 26.2926C43.95 26.3704 44.096 26.4288 44.2614 26.4677C44.4268 26.5067 44.6044 26.5261 44.7942 26.5261C45.2759 26.5261 45.6627 26.4702 45.9546 26.3583C46.2515 26.2464 46.4777 26.0931 46.6334 25.8985V20.5195H49.0857V28.4164H46.7867L46.7283 27.6355C46.4315 27.9274 46.069 28.1561 45.6408 28.3216C45.2175 28.4821 44.7139 28.5624 44.13 28.5624C43.6629 28.5624 43.2347 28.5089 42.8455 28.4018C42.4611 28.2899 42.1302 28.1172 41.8529 27.8836C41.5756 27.6452 41.3615 27.3411 41.2106 26.9713C41.0598 26.5967 40.9844 26.149 40.9844 25.6284V20.5195H43.4294Z" fill="#2F2F2F"/>
<path d="M36.9547 26.1685C36.9547 26.042 36.9012 25.9398 36.7942 25.862C36.692 25.7793 36.5509 25.7111 36.3709 25.6576C36.1957 25.5992 35.9913 25.5481 35.7578 25.5043C35.5242 25.4654 35.2785 25.4216 35.0206 25.373C34.5195 25.2757 34.0621 25.1613 33.6485 25.0299C33.2349 24.8986 32.8773 24.738 32.5757 24.5482C32.2788 24.3536 32.0477 24.1201 31.8823 23.8476C31.7169 23.5751 31.6341 23.2515 31.6341 22.8769C31.6341 22.546 31.7047 22.2298 31.8458 21.9281C31.9869 21.6264 32.2107 21.3612 32.5173 21.1325C32.8287 20.899 33.2277 20.7141 33.7142 20.5779C34.2008 20.4416 34.7871 20.3735 35.4732 20.3735C36.1203 20.3735 36.6823 20.4368 37.1591 20.5633C37.6408 20.6849 38.0398 20.8601 38.3561 21.0888C38.6723 21.3126 38.9083 21.5851 39.064 21.9062C39.2197 22.2225 39.2976 22.5728 39.2976 22.9572H36.8526C36.8526 22.6652 36.7334 22.4463 36.4949 22.3003C36.2614 22.1543 35.894 22.0814 35.3929 22.0814C34.9355 22.0814 34.5876 22.1397 34.3492 22.2565C34.1108 22.3684 33.9916 22.5339 33.9916 22.7528C33.9916 22.8891 34.0378 23.0034 34.1302 23.0958C34.2275 23.1834 34.3565 23.2564 34.5171 23.3148C34.6825 23.3732 34.8722 23.4218 35.0863 23.4608C35.3053 23.4997 35.5388 23.5362 35.787 23.5702C36.0254 23.6043 36.2784 23.6432 36.546 23.687C36.8185 23.7308 37.0861 23.7916 37.3489 23.8695C37.6165 23.9425 37.8695 24.0349 38.1079 24.1468C38.3512 24.2587 38.5628 24.3998 38.7429 24.5701C38.9278 24.7404 39.0737 24.9448 39.1808 25.1832C39.2927 25.4216 39.3486 25.7014 39.3486 26.0225C39.3486 26.3972 39.2684 26.7402 39.1078 27.0516C38.9521 27.363 38.7137 27.6306 38.3925 27.8545C38.0714 28.0783 37.6676 28.2534 37.181 28.3799C36.6993 28.5016 36.1324 28.5624 35.4805 28.5624C34.7117 28.5624 34.0621 28.4821 33.5318 28.3216C33.0063 28.1561 32.5781 27.9445 32.2472 27.6866C31.9212 27.4287 31.6852 27.1416 31.5393 26.8254C31.3933 26.5042 31.3203 26.1855 31.3203 25.8693H33.6631C33.6777 26.0396 33.7361 26.188 33.8383 26.3145C33.9453 26.4361 34.0816 26.5359 34.247 26.6137C34.4173 26.6916 34.6095 26.75 34.8236 26.7889C35.0377 26.8229 35.2639 26.84 35.5023 26.84C35.9597 26.84 36.3149 26.7791 36.5679 26.6575C36.8258 26.5359 36.9547 26.3729 36.9547 26.1685Z" fill="#2F2F2F"/>
</svg>
