<svg width="75" height="55" viewBox="0 0 75 55" fill="none" xmlns="http://www.w3.org/2000/svg">
<path d="M5.65302 12H28.9027C29.0184 12 29.1255 11.9399 29.1882 11.8405C33.409 5.15609 42.4746 0.0609143 50.7759 0.015564C50.8541 0.015566 50.9287 0.015568 51 0.0155703C50.9254 0.0151568 50.8506 0.0151555 50.7759 0.015564C48.2645 0.0155024 42.0992 0.0155972 26.8975 0.0155703C15.8245 -0.408509 7.70676 7.94592 5.1579 10.947C4.79487 11.3744 5.09881 12 5.65302 12Z" fill="#5D616C"/>
<path d="M26.9623 15.5347C27.078 15.2916 26.9136 15 26.6565 15H15.4968C13 15 10.5904 15.9716 8.72628 17.7299L0.22851 25.7453C-0.237034 26.1845 0.0563564 27 0.679874 27H23.8575C24.0353 27 24.1826 26.8566 24.1975 26.669C24.3577 24.6566 24.9324 19.7983 26.9623 15.5347Z" fill="#94796D"/>
<path d="M19.0673 29H23.6721C23.8491 29 23.992 29.156 23.9978 29.349C24.1093 33.0908 25.9498 38.3484 26.9605 40.4458C27.0784 40.6903 26.9185 41 26.6654 41H4.64196C4.05123 41 3.77526 40.2016 4.21879 39.7758L12.7197 31.6136C14.4741 29.9291 16.7307 29 19.0673 29Z" fill="#E6BF64"/>
<path d="M14.2599 51.2717C15.6015 52.1529 19.2757 54.0606 26.595 54.6534C36.2242 55.4333 51 54.6534 51 54.6534C38.9048 54.2793 32.054 46.354 30.5598 44.4219C30.3576 44.1606 30.0539 44 29.7288 44H22.67C21.8814 44 21.1186 44.2882 20.518 44.8129L14.2244 50.3119C13.9181 50.5796 13.921 51.0492 14.2599 51.2717Z" fill="#5D616C"/>
<path d="M69.8789 27.7678H71.2092V25.9562H73.4486V27.7678H74.9259V29.4456H73.4486V32.5273C73.4486 32.8036 73.5243 32.993 73.6759 33.0955C73.8274 33.1936 74.0435 33.2426 74.3243 33.2426C74.458 33.2426 74.585 33.2404 74.7053 33.2359C74.8257 33.2315 74.9237 33.2225 74.9995 33.2092L74.9928 34.9272C74.8056 34.9985 74.6028 35.0497 74.3845 35.0809C74.1705 35.1166 73.9165 35.1344 73.6224 35.1344C73.2614 35.1344 72.9316 35.0898 72.633 35.0007C72.3389 34.916 72.0849 34.7823 71.871 34.5996C71.6615 34.4124 71.4989 34.1762 71.383 33.891C71.2671 33.6058 71.2092 33.2649 71.2092 32.8682V29.4456H69.8789V27.7678Z" fill="#5D616C"/>
<path d="M64.4707 27.7678H66.6032L66.6433 28.5165C66.8572 28.2312 67.1223 28.0129 67.4388 27.8613C67.7596 27.7098 68.1362 27.6341 68.5685 27.6341C68.6843 27.6341 68.8114 27.6407 68.9495 27.6541C69.0877 27.663 69.1968 27.6831 69.2771 27.7143L69.257 29.5793C69.1322 29.5704 68.9963 29.5593 68.8492 29.5459C68.6977 29.5325 68.5551 29.5259 68.4214 29.5259C67.9758 29.5259 67.6126 29.6061 67.3318 29.7665C67.0555 29.9225 66.8483 30.1342 66.7101 30.4016V35.0007H64.4707V27.7678Z" fill="#5D616C"/>
<path d="M55.293 31.3709C55.293 30.7915 55.3843 30.2701 55.567 29.8066C55.7542 29.3431 56.0238 28.951 56.3759 28.6301C56.7324 28.3092 57.1692 28.0641 57.6861 27.8948C58.2075 27.721 58.8025 27.6341 59.471 27.6341C60.0459 27.6341 60.5584 27.7121 61.0085 27.868C61.4586 28.024 61.8374 28.2513 62.1449 28.5499C62.4568 28.844 62.6953 29.2072 62.8602 29.6395C63.025 30.0673 63.1075 30.5553 63.1075 31.1035V32.0861H57.5992C57.7062 32.4872 57.9379 32.7836 58.2944 32.9752C58.651 33.1668 59.1323 33.2627 59.7384 33.2627C60.1394 33.2627 60.5205 33.2114 60.8815 33.1089C61.2469 33.0064 61.5544 32.8237 61.804 32.5608L62.9471 33.891C62.8044 34.0515 62.6262 34.2074 62.4123 34.359C62.1984 34.506 61.951 34.6375 61.6703 34.7534C61.3895 34.8692 61.0731 34.9606 60.721 35.0274C60.3734 35.0987 59.9946 35.1344 59.5846 35.1344C58.9072 35.1344 58.3011 35.0609 57.7663 34.9138C57.236 34.7667 56.7859 34.5461 56.416 34.252C56.0506 33.9579 55.772 33.5924 55.5804 33.1557C55.3888 32.7145 55.293 32.202 55.293 31.6182V31.3709ZM60.8948 30.6756V30.4885C60.8948 30.181 60.779 29.9292 60.5472 29.7331C60.3199 29.537 59.9656 29.439 59.4843 29.439C59.2125 29.439 58.9718 29.4702 58.7624 29.5325C58.5574 29.5905 58.3791 29.6752 58.2276 29.7866C58.0761 29.8935 57.9513 30.0228 57.8532 30.1743C57.7552 30.3258 57.6794 30.4929 57.626 30.6756H60.8948Z" fill="#5D616C"/>
<path d="M46.3438 37.7816V27.7678H48.416L48.5029 28.5098C48.7703 28.229 49.0867 28.0129 49.4522 27.8613C49.8176 27.7098 50.2432 27.6341 50.729 27.6341C51.2816 27.6341 51.7673 27.721 52.1863 27.8948C52.6096 28.0686 52.9639 28.3159 53.2491 28.6368C53.5344 28.9577 53.7505 29.3431 53.8976 29.7933C54.0446 30.2434 54.1182 30.7425 54.1182 31.2906V31.431C54.1182 31.9569 54.0446 32.4471 53.8976 32.9017C53.7505 33.3518 53.5344 33.7417 53.2491 34.0715C52.9639 34.4013 52.6119 34.662 52.1929 34.8536C51.774 35.0408 51.2927 35.1344 50.749 35.1344C50.2766 35.1344 49.8644 35.0609 49.5123 34.9138C49.1603 34.7623 48.8505 34.5573 48.5832 34.2988V37.7816H46.3438ZM50.114 29.4991C49.753 29.4991 49.4455 29.5459 49.1915 29.6395C48.9374 29.7286 48.7347 29.8735 48.5832 30.074V32.6543C48.7347 32.8549 48.9352 33.0064 49.1848 33.1089C49.4388 33.2114 49.7552 33.2627 50.134 33.2627C50.446 33.2627 50.7134 33.2159 50.9362 33.1223C51.159 33.0242 51.3395 32.8928 51.4777 32.7279C51.6158 32.563 51.7161 32.3691 51.7785 32.1463C51.8453 31.9235 51.8788 31.685 51.8788 31.431V31.2906C51.8788 31.0233 51.8453 30.7804 51.7785 30.562C51.7161 30.3392 51.6136 30.1498 51.471 29.9938C51.3284 29.8378 51.1457 29.7175 50.9228 29.6328C50.7 29.5437 50.4304 29.4991 50.114 29.4991Z" fill="#5D616C"/>
<path d="M37.2793 35.0007L39.893 31.2773L37.3796 27.7678H39.8128L41.2634 29.9737L42.7475 27.7678H45.174L42.6539 31.2773L45.2676 35.0007H42.841L41.2701 32.5608L39.7192 35.0007H37.2793Z" fill="#5D616C"/>
<path d="M28.8223 31.3709C28.8223 30.7915 28.9136 30.2701 29.0963 29.8066C29.2835 29.3431 29.5531 28.951 29.9052 28.6301C30.2617 28.3092 30.6985 28.0641 31.2154 27.8948C31.7368 27.721 32.3318 27.6341 33.0003 27.6341C33.5752 27.6341 34.0877 27.7121 34.5378 27.868C34.9879 28.024 35.3667 28.2513 35.6742 28.5499C35.9861 28.844 36.2246 29.2072 36.3894 29.6395C36.5543 30.0673 36.6368 30.5553 36.6368 31.1035V32.0861H31.1285C31.2355 32.4872 31.4672 32.7836 31.8237 32.9752C32.1803 33.1668 32.6616 33.2627 33.2677 33.2627C33.6687 33.2627 34.0498 33.2114 34.4108 33.1089C34.7762 33.0064 35.0837 32.8237 35.3333 32.5608L36.4764 33.891C36.3337 34.0515 36.1555 34.2074 35.9416 34.359C35.7277 34.506 35.4803 34.6375 35.1996 34.7534C34.9188 34.8692 34.6024 34.9606 34.2503 35.0274C33.9027 35.0987 33.5239 35.1344 33.1139 35.1344C32.4365 35.1344 31.8304 35.0609 31.2956 34.9138C30.7653 34.7667 30.3152 34.5461 29.9453 34.252C29.5799 33.9579 29.3013 33.5924 29.1097 33.1557C28.9181 32.7145 28.8223 32.202 28.8223 31.6182V31.3709ZM34.4241 30.6756V30.4885C34.4241 30.181 34.3082 29.9292 34.0765 29.7331C33.8492 29.537 33.4949 29.439 33.0136 29.439C32.7418 29.439 32.5011 29.4702 32.2917 29.5325C32.0867 29.5905 31.9084 29.6752 31.7569 29.7866C31.6054 29.8935 31.4806 30.0228 31.3825 30.1743C31.2845 30.3258 31.2087 30.4929 31.1553 30.6756H34.4241Z" fill="#5D616C"/>
<path d="M46.75 18.8689H48.8624L48.9226 19.631C49.2301 19.3369 49.5933 19.114 50.0122 18.9625C50.4311 18.811 50.8968 18.7352 51.4093 18.7352C51.8238 18.7352 52.2003 18.7843 52.539 18.8823C52.8777 18.9759 53.1674 19.1363 53.4081 19.3636C53.6532 19.5864 53.8403 19.8806 53.9696 20.246C54.1033 20.607 54.1701 21.0549 54.1701 21.5896V26.1019H51.9173V21.5829C51.9173 21.3779 51.8861 21.2108 51.8238 21.0816C51.7658 20.9524 51.6767 20.8521 51.5564 20.7808C51.436 20.7095 51.289 20.6627 51.1152 20.6404C50.9414 20.6137 50.7408 20.6003 50.5135 20.6003C50.1659 20.6003 49.8629 20.6538 49.6044 20.7607C49.3504 20.8632 49.1454 21.0081 48.9894 21.1952V26.1019H46.75V18.8689Z" fill="#5D616C"/>
<path d="M39.798 18.8689V23.5616C39.798 23.6909 39.8292 23.8045 39.8916 23.9026C39.9584 24.0006 40.0476 24.0853 40.159 24.1566C40.2748 24.2279 40.4085 24.2814 40.5601 24.317C40.7116 24.3527 40.8742 24.3705 41.0481 24.3705C41.4892 24.3705 41.8435 24.3193 42.1109 24.2168C42.3828 24.1143 42.59 23.9739 42.7326 23.7956V18.8689H44.9787V26.1019H42.873L42.8195 25.3866C42.5477 25.654 42.2157 25.8634 41.8235 26.015C41.4358 26.162 40.9745 26.2356 40.4397 26.2356C40.0119 26.2356 39.6197 26.1865 39.2632 26.0885C38.9111 25.986 38.6081 25.8278 38.3541 25.6139C38.1001 25.3955 37.904 25.117 37.7658 24.7783C37.6277 24.4351 37.5586 24.0251 37.5586 23.5483V18.8689H39.798Z" fill="#5D616C"/>
<path d="M33.8677 24.043C33.8677 23.9271 33.8187 23.8335 33.7206 23.7622C33.627 23.6864 33.4978 23.624 33.3329 23.575C33.1725 23.5215 32.9853 23.4747 32.7714 23.4346C32.5575 23.399 32.3324 23.3589 32.0962 23.3143C31.6372 23.2252 31.2183 23.1205 30.8395 23.0001C30.4607 22.8798 30.1331 22.7327 29.8568 22.5589C29.585 22.3807 29.3733 22.1668 29.2218 21.9172C29.0702 21.6676 28.9945 21.3713 28.9945 21.0281C28.9945 20.7251 29.0591 20.4354 29.1883 20.1591C29.3176 19.8828 29.5226 19.6399 29.8033 19.4304C30.0886 19.2165 30.454 19.0472 30.8996 18.9224C31.3453 18.7976 31.8823 18.7352 32.5107 18.7352C33.1034 18.7352 33.6181 18.7932 34.0549 18.909C34.4961 19.0204 34.8615 19.1809 35.1512 19.3903C35.4408 19.5953 35.657 19.8449 35.7996 20.139C35.9422 20.4287 36.0135 20.7496 36.0135 21.1016H33.7741C33.7741 20.8343 33.6649 20.6337 33.4465 20.5C33.2326 20.3663 32.8962 20.2995 32.4371 20.2995C32.0182 20.2995 31.6996 20.3529 31.4812 20.4599C31.2628 20.5624 31.1537 20.7139 31.1537 20.9145C31.1537 21.0393 31.196 21.144 31.2807 21.2287C31.3698 21.3089 31.4879 21.3757 31.635 21.4292C31.7865 21.4827 31.9603 21.5272 32.1564 21.5629C32.3569 21.5985 32.5708 21.632 32.7981 21.6632C33.0165 21.6944 33.2482 21.73 33.4933 21.7701C33.7429 21.8102 33.988 21.8659 34.2287 21.9372C34.4738 22.0041 34.7055 22.0888 34.9239 22.1913C35.1467 22.2938 35.3406 22.423 35.5055 22.579C35.6748 22.735 35.8085 22.9221 35.9066 23.1405C36.0091 23.3589 36.0603 23.6151 36.0603 23.9093C36.0603 24.2524 35.9868 24.5666 35.8397 24.8518C35.6971 25.137 35.4787 25.3821 35.1846 25.5871C34.8905 25.7921 34.5206 25.9526 34.0749 26.0684C33.6337 26.1799 33.1145 26.2356 32.5174 26.2356C31.8132 26.2356 31.2183 26.162 30.7325 26.015C30.2512 25.8634 29.859 25.6696 29.556 25.4334C29.2574 25.1972 29.0413 24.9343 28.9076 24.6446C28.7739 24.3505 28.707 24.0586 28.707 23.7689H30.8528C30.8662 23.9249 30.9197 24.0608 31.0133 24.1766C31.1113 24.2881 31.2361 24.3794 31.3876 24.4507C31.5436 24.522 31.7196 24.5755 31.9157 24.6112C32.1118 24.6424 32.319 24.658 32.5374 24.658C32.9563 24.658 33.2817 24.6022 33.5134 24.4908C33.7496 24.3794 33.8677 24.2301 33.8677 24.043Z" fill="#5D616C"/>
</svg>
