<svg width="158" height="30" viewBox="0 0 158 30" fill="none" xmlns="http://www.w3.org/2000/svg">
<path d="M101.968 20.192C101.371 20.192 100.811 20.0853 100.288 19.872C99.7653 19.648 99.3333 19.3333 98.992 18.928C98.6613 18.5227 98.48 18.048 98.448 17.504H100.496C100.549 17.8453 100.715 18.112 100.992 18.304C101.28 18.496 101.6 18.592 101.952 18.592C102.251 18.592 102.528 18.528 102.784 18.4C103.051 18.2613 103.184 18.048 103.184 17.76C103.184 17.536 103.088 17.36 102.896 17.232C102.704 17.104 102.48 17.0027 102.224 16.928C101.968 16.8533 101.733 16.7893 101.52 16.736C100.987 16.608 100.501 16.4587 100.064 16.288C99.6267 16.1067 99.28 15.8613 99.024 15.552C98.768 15.232 98.64 14.8107 98.64 14.288C98.64 13.776 98.784 13.3387 99.072 12.976C99.3707 12.6133 99.76 12.3413 100.24 12.16C100.731 11.968 101.259 11.872 101.824 11.872C102.709 11.872 103.456 12.096 104.064 12.544C104.672 12.992 105.003 13.6533 105.056 14.528H103.12C103.088 14.1867 102.944 13.9307 102.688 13.76C102.443 13.5787 102.133 13.488 101.76 13.488C101.461 13.488 101.195 13.5413 100.96 13.648C100.725 13.7547 100.608 13.9573 100.608 14.256C100.608 14.4693 100.704 14.6453 100.896 14.784C101.088 14.912 101.317 15.0187 101.584 15.104C101.851 15.1787 102.085 15.2427 102.288 15.296C102.843 15.4347 103.328 15.5947 103.744 15.776C104.171 15.9573 104.507 16.2027 104.752 16.512C104.997 16.8213 105.125 17.2373 105.136 17.76C105.136 18.2827 104.987 18.7253 104.688 19.088C104.4 19.4507 104.016 19.728 103.536 19.92C103.056 20.1013 102.533 20.192 101.968 20.192ZM110.17 20.192C109.37 20.192 108.655 20.0213 108.026 19.68C107.407 19.328 106.922 18.8373 106.57 18.208C106.218 17.5787 106.042 16.8533 106.042 16.032C106.042 15.168 106.229 14.4267 106.602 13.808C106.986 13.1787 107.493 12.6987 108.122 12.368C108.762 12.0373 109.466 11.872 110.234 11.872C111.034 11.872 111.749 12.048 112.378 12.4C113.007 12.7413 113.503 13.2213 113.866 13.84C114.239 14.4587 114.426 15.1893 114.426 16.032C114.426 16.832 114.245 17.5467 113.882 18.176C113.519 18.8053 113.018 19.3013 112.378 19.664C111.749 20.016 111.013 20.192 110.17 20.192ZM110.202 18.416C110.629 18.416 110.997 18.3093 111.306 18.096C111.626 17.872 111.877 17.5787 112.058 17.216C112.239 16.8427 112.33 16.4373 112.33 16C112.33 15.4987 112.229 15.072 112.026 14.72C111.834 14.368 111.578 14.1013 111.258 13.92C110.938 13.7387 110.586 13.648 110.202 13.648C109.786 13.648 109.418 13.7493 109.098 13.952C108.789 14.1547 108.543 14.4373 108.362 14.8C108.191 15.152 108.106 15.5627 108.106 16.032C108.106 16.5013 108.197 16.9173 108.378 17.28C108.57 17.6427 108.826 17.9253 109.146 18.128C109.466 18.32 109.818 18.416 110.202 18.416ZM115.611 20V12.064H117.643V12.976C117.909 12.6027 118.251 12.3253 118.667 12.144C119.083 11.9627 119.52 11.872 119.979 11.872C120.576 11.872 121.131 12 121.643 12.256C122.165 12.5013 122.571 12.8907 122.859 13.424C123.125 12.9333 123.493 12.5547 123.963 12.288C124.443 12.0107 124.965 11.872 125.531 11.872C126.139 11.872 126.688 12 127.179 12.256C127.68 12.5013 128.075 12.88 128.363 13.392C128.651 13.904 128.795 14.544 128.795 15.312V20H126.763V15.6C126.763 15.0027 126.619 14.528 126.331 14.176C126.043 13.824 125.6 13.648 125.003 13.648C124.416 13.648 123.973 13.824 123.675 14.176C123.376 14.528 123.227 15.0027 123.227 15.6V20H121.195V15.6C121.195 14.992 121.04 14.5173 120.731 14.176C120.432 13.824 120 13.648 119.435 13.648C118.955 13.648 118.533 13.8027 118.171 14.112C117.819 14.4107 117.643 14.9067 117.643 15.6V20H115.611ZM134.815 20.192C134.281 20.192 133.78 20.0907 133.311 19.888C132.852 19.6747 132.468 19.3493 132.159 18.912V20H130.111V8.8H132.143V13.184C132.441 12.7467 132.825 12.4213 133.295 12.208C133.764 11.984 134.271 11.872 134.815 11.872C135.572 11.872 136.223 12.0587 136.767 12.432C137.321 12.7947 137.748 13.2907 138.047 13.92C138.345 14.5387 138.495 15.232 138.495 16C138.495 16.7573 138.345 17.456 138.047 18.096C137.748 18.736 137.321 19.248 136.767 19.632C136.223 20.0053 135.572 20.192 134.815 20.192ZM134.271 18.4C134.697 18.4 135.071 18.2933 135.391 18.08C135.711 17.8667 135.961 17.5787 136.143 17.216C136.324 16.8427 136.415 16.4373 136.415 16C136.415 15.4987 136.313 15.0773 136.111 14.736C135.919 14.384 135.657 14.1173 135.327 13.936C135.007 13.7547 134.655 13.664 134.271 13.664C133.855 13.664 133.487 13.7653 133.167 13.968C132.857 14.1707 132.612 14.4533 132.431 14.816C132.249 15.168 132.159 15.5733 132.159 16.032C132.159 16.5013 132.249 16.9173 132.431 17.28C132.623 17.632 132.879 17.9093 133.199 18.112C133.519 18.304 133.876 18.4 134.271 18.4ZM139.673 20V12.064H141.705V13.248C141.982 12.8 142.334 12.4587 142.761 12.224C143.188 11.9893 143.662 11.872 144.185 11.872V14.016H143.641C142.99 14.016 142.505 14.1707 142.185 14.48C141.865 14.7893 141.705 15.3067 141.705 16.032V20H139.673ZM146.246 11.04C145.883 11.04 145.569 10.912 145.302 10.656C145.046 10.3893 144.918 10.0747 144.918 9.712C144.918 9.33867 145.046 9.024 145.302 8.768C145.569 8.512 145.883 8.384 146.246 8.384C146.619 8.384 146.934 8.512 147.19 8.768C147.446 9.024 147.574 9.33867 147.574 9.712C147.574 10.0747 147.446 10.3893 147.19 10.656C146.934 10.912 146.619 11.04 146.246 11.04ZM145.222 20V12.064H147.27V20H145.222ZM152.639 20.192C151.839 20.192 151.124 20.0213 150.495 19.68C149.876 19.328 149.391 18.8373 149.039 18.208C148.687 17.5787 148.511 16.8533 148.511 16.032C148.511 15.168 148.698 14.4267 149.071 13.808C149.455 13.1787 149.962 12.6987 150.591 12.368C151.231 12.0373 151.935 11.872 152.703 11.872C153.503 11.872 154.218 12.048 154.847 12.4C155.476 12.7413 155.972 13.2213 156.335 13.84C156.708 14.4587 156.895 15.1893 156.895 16.032C156.895 16.832 156.714 17.5467 156.351 18.176C155.988 18.8053 155.487 19.3013 154.847 19.664C154.218 20.016 153.482 20.192 152.639 20.192ZM152.671 18.416C153.098 18.416 153.466 18.3093 153.775 18.096C154.095 17.872 154.346 17.5787 154.527 17.216C154.708 16.8427 154.799 16.4373 154.799 16C154.799 15.4987 154.698 15.072 154.495 14.72C154.303 14.368 154.047 14.1013 153.727 13.92C153.407 13.7387 153.055 13.648 152.671 13.648C152.255 13.648 151.887 13.7493 151.567 13.952C151.258 14.1547 151.012 14.4373 150.831 14.8C150.66 15.152 150.575 15.5627 150.575 16.032C150.575 16.5013 150.666 16.9173 150.847 17.28C151.039 17.6427 151.295 17.9253 151.615 18.128C151.935 18.32 152.287 18.416 152.671 18.416Z" fill="black"/>
<circle cx="15" cy="15" r="15" fill="#5D616C"/>
<circle cx="47.5" cy="14.5" r="12.5" fill="#744C04"/>
<circle cx="75" cy="15" r="10" fill="#F2F2F2"/>
</svg>
