<svg width="29" height="29" viewBox="0 0 29 29" fill="none" xmlns="http://www.w3.org/2000/svg">
<path d="M14.5003 20.3333C16.0474 20.3333 17.5312 19.7187 18.6251 18.6248C19.7191 17.5308 20.3337 16.0471 20.3337 14.5C20.3337 12.9529 19.7191 11.4692 18.6251 10.3752C17.5312 9.28124 16.0474 8.66666 14.5003 8.66666C12.9532 8.66666 11.4695 9.28124 10.3755 10.3752C9.28157 11.4692 8.66699 12.9529 8.66699 14.5C8.66699 16.0471 9.28157 17.5308 10.3755 18.6248C11.4695 19.7187 12.9532 20.3333 14.5003 20.3333Z" stroke="#5D616C" stroke-width="1.5" stroke-linecap="round" stroke-linejoin="round"/>
<path d="M1.375 20.3333V8.66667C1.375 6.7328 2.14323 4.87813 3.51068 3.51068C4.87813 2.14323 6.7328 1.375 8.66667 1.375H20.3333C22.2672 1.375 24.1219 2.14323 25.4893 3.51068C26.8568 4.87813 27.625 6.7328 27.625 8.66667V20.3333C27.625 22.2672 26.8568 24.1219 25.4893 25.4893C24.1219 26.8568 22.2672 27.625 20.3333 27.625H8.66667C6.7328 27.625 4.87813 26.8568 3.51068 25.4893C2.14323 24.1219 1.375 22.2672 1.375 20.3333Z" stroke="#5D616C" stroke-width="1.5"/>
<path d="M22.5205 6.49285L22.5343 6.47772" stroke="#5D616C" stroke-width="1.5" stroke-linecap="round" stroke-linejoin="round"/>
</svg>
