<svg width="27" height="27" viewBox="0 0 27 27" fill="none" xmlns="http://www.w3.org/2000/svg">
<path d="M19.75 6.35714H21.5357M8.14286 1H18.8571C20.7515 1 22.5684 1.75255 23.9079 3.09209C25.2475 4.43164 26 6.24845 26 8.14286V18.8571C26 20.7515 25.2475 22.5684 23.9079 23.9079C22.5684 25.2475 20.7515 26 18.8571 26H8.14286C6.24845 26 4.43164 25.2475 3.09209 23.9079C1.75255 22.5684 1 20.7515 1 18.8571V8.14286C1 6.24845 1.75255 4.43164 3.09209 3.09209C4.43164 1.75255 6.24845 1 8.14286 1ZM13.5 18.8571C12.0792 18.8571 10.7166 18.2927 9.71193 17.2881C8.70727 16.2834 8.14286 14.9208 8.14286 13.5C8.14286 12.0792 8.70727 10.7166 9.71193 9.71193C10.7166 8.70727 12.0792 8.14286 13.5 8.14286C14.9208 8.14286 16.2834 8.70727 17.2881 9.71193C18.2927 10.7166 18.8571 12.0792 18.8571 13.5C18.8571 14.9208 18.2927 16.2834 17.2881 17.2881C16.2834 18.2927 14.9208 18.8571 13.5 18.8571Z" stroke="black"/>
</svg>
