<svg width="32" height="32" viewBox="0 0 32 32" fill="none" xmlns="http://www.w3.org/2000/svg">
<path fill-rule="evenodd" clip-rule="evenodd" d="M14.7977 7H17.1992C17.2787 7 17.3551 7.03161 17.4113 7.08787C17.4676 7.14413 17.4992 7.22044 17.4992 7.3C17.4992 10.012 20.4362 11.7085 22.7852 10.351C22.8538 10.3122 22.9348 10.302 23.0109 10.3225C23.0869 10.343 23.1519 10.3925 23.1917 10.4605L24.3947 12.5425C24.4339 12.6112 24.4444 12.6926 24.4239 12.769C24.4034 12.8455 24.3535 12.9107 24.2852 12.9505C21.9362 14.3065 21.9362 17.6965 24.2852 19.054C24.3531 19.0938 24.4027 19.1588 24.4232 19.2348C24.4437 19.3109 24.4335 19.3919 24.3947 19.4605L23.1917 21.5425C23.1519 21.6105 23.0869 21.66 23.0109 21.6805C22.9348 21.701 22.8538 21.6908 22.7852 21.652C20.4362 20.2945 17.4992 21.9895 17.4992 24.7C17.4992 24.7793 17.4678 24.8554 17.4118 24.9116C17.3559 24.9678 17.28 24.9996 17.2007 25H14.7992C14.7196 25 14.6433 24.9684 14.5871 24.9121C14.5308 24.8559 14.4992 24.7796 14.4992 24.7C14.4992 21.988 11.5622 20.293 9.21318 21.649C9.14448 21.6882 9.06306 21.6987 8.98664 21.6782C8.91023 21.6577 8.84501 21.6079 8.80518 21.5395L7.60518 19.4575C7.56629 19.3891 7.55582 19.3082 7.57602 19.2322C7.59622 19.1561 7.64548 19.0911 7.71318 19.051C10.0622 17.6935 10.0622 14.3035 7.71318 12.946C7.64562 12.9062 7.59633 12.8415 7.57587 12.7658C7.5554 12.6901 7.56539 12.6094 7.60368 12.541L8.80518 10.4575C8.84526 10.3894 8.91059 10.3398 8.98698 10.3196C9.06337 10.2994 9.14466 10.3101 9.21318 10.3495C11.5622 11.707 14.4992 10.0105 14.4992 7.2985C14.4992 7.1335 14.6327 7 14.7977 7ZM12.2492 7.3C12.2492 5.89 13.3892 4.75 14.7977 4.75H17.1992C18.6092 4.75 19.7492 5.89 19.7492 7.3C19.7496 7.52345 19.8088 7.74285 19.9207 7.93623C20.0327 8.12961 20.1935 8.29018 20.387 8.40184C20.5806 8.5135 20.8001 8.57234 21.0235 8.57245C21.247 8.57257 21.4665 8.51396 21.6602 8.4025C22.2455 8.06539 22.9407 7.97429 23.5932 8.14921C24.2456 8.32414 24.802 8.75078 25.1402 9.3355L26.3432 11.4175C27.0467 12.637 26.6282 14.194 25.4102 14.8975C25.2164 15.0094 25.0556 15.1704 24.9437 15.3642C24.8319 15.5579 24.773 15.7778 24.773 16.0015C24.773 16.2252 24.8319 16.4451 24.9437 16.6388C25.0556 16.8326 25.2164 16.9936 25.4102 17.1055C25.9949 17.4437 26.4215 18.0001 26.5965 18.6525C26.7714 19.305 26.6803 20.0002 26.3432 20.5855L25.1402 22.6675C24.802 23.2522 24.2456 23.6789 23.5932 23.8538C22.9407 24.0287 22.2455 23.9376 21.6602 23.6005C21.4665 23.489 21.247 23.4304 21.0235 23.4305C20.8001 23.4307 20.5806 23.4895 20.387 23.6012C20.1935 23.7128 20.0327 23.8734 19.9207 24.0668C19.8088 24.2601 19.7496 24.4796 19.7492 24.703C19.7492 26.1115 18.6092 27.253 17.2007 27.253H14.7992C14.1231 27.2526 13.4749 26.9838 12.997 26.5056C12.5191 26.0274 12.2507 25.379 12.2507 24.703C12.2502 24.4796 12.1911 24.2601 12.0791 24.0668C11.9672 23.8734 11.8064 23.7128 11.6128 23.6012C11.4193 23.4895 11.1998 23.4307 10.9763 23.4305C10.7529 23.4304 10.5333 23.489 10.3397 23.6005C9.75434 23.9376 9.05915 24.0287 8.40671 23.8538C7.75427 23.6789 7.19788 23.2522 6.85968 22.6675L5.65668 20.5855C5.31957 20.0002 5.22848 19.305 5.4034 18.6525C5.57832 18.0001 6.00496 17.4437 6.58968 17.1055C6.78307 16.9935 6.94361 16.8326 7.05522 16.6389C7.16682 16.4453 7.22557 16.2257 7.22557 16.0023C7.22557 15.7788 7.16682 15.5592 7.05522 15.3656C6.94361 15.1719 6.78307 15.011 6.58968 14.899C6.00496 14.5608 5.57832 14.0044 5.4034 13.352C5.22848 12.6995 5.31957 12.0043 5.65668 11.419L6.85818 9.3355C7.19638 8.75078 7.75277 8.32414 8.40521 8.14921C9.05765 7.97429 9.75284 8.06539 10.3382 8.4025C10.5318 8.51396 10.7514 8.57257 10.9748 8.57245C11.1983 8.57234 11.4178 8.5135 11.6113 8.40184C11.8049 8.29018 11.9657 8.12961 12.0776 7.93623C12.1896 7.74285 12.2487 7.52345 12.2492 7.3ZM18.2492 16C18.2492 16.5967 18.0121 17.169 17.5902 17.591C17.1682 18.0129 16.5959 18.25 15.9992 18.25C15.4024 18.25 14.8301 18.0129 14.4082 17.591C13.9862 17.169 13.7492 16.5967 13.7492 16C13.7492 15.4033 13.9862 14.831 14.4082 14.409C14.8301 13.9871 15.4024 13.75 15.9992 13.75C16.5959 13.75 17.1682 13.9871 17.5902 14.409C18.0121 14.831 18.2492 15.4033 18.2492 16ZM20.4992 16C20.4992 17.1935 20.0251 18.3381 19.1812 19.182C18.3373 20.0259 17.1927 20.5 15.9992 20.5C14.8057 20.5 13.6611 20.0259 12.8172 19.182C11.9733 18.3381 11.4992 17.1935 11.4992 16C11.4992 14.8065 11.9733 13.6619 12.8172 12.818C13.6611 11.9741 14.8057 11.5 15.9992 11.5C17.1927 11.5 18.3373 11.9741 19.1812 12.818C20.0251 13.6619 20.4992 14.8065 20.4992 16Z" fill="#FFBA21"/>
<circle cx="16" cy="16" r="15" stroke="#FFBA21" stroke-width="2"/>
</svg>
