<svg width="33" height="33" viewBox="0 0 33 33" fill="none" xmlns="http://www.w3.org/2000/svg">
<path d="M26.8843 4.12087C26.5533 4.14542 26.2285 4.22307 25.9221 4.35084H25.918C25.6241 4.46737 24.2268 5.05518 22.1024 5.94618L14.4897 9.15234C9.02718 11.452 3.65746 13.7167 3.65746 13.7167L3.7214 13.6919C3.7214 13.6919 3.35118 13.8136 2.96446 14.0786C2.72501 14.23 2.5193 14.429 2.36015 14.6633C2.1704 14.9418 2.01778 15.3677 2.07449 15.808C2.16731 16.5526 2.64993 16.9991 2.99643 17.2456C3.34706 17.4952 3.68118 17.6117 3.68118 17.6117H3.68943L8.72503 19.3081C8.95087 20.0331 10.2595 24.3354 10.5741 25.3265C10.7597 25.9184 10.9401 26.2886 11.166 26.5712C11.2739 26.7156 11.4042 26.8362 11.5568 26.9332C11.6361 26.9808 11.7214 27.0176 11.8105 27.0425L11.759 27.0301C11.7744 27.0342 11.7868 27.0466 11.7982 27.0507C11.8394 27.0621 11.8672 27.0662 11.9198 27.0744C12.717 27.3157 13.3574 26.8207 13.3574 26.8207L13.3935 26.7919L16.3666 24.0848L21.3496 27.9077L21.463 27.9562C22.5015 28.412 23.5534 28.1583 24.1092 27.7107C24.6692 27.2601 24.8868 26.6836 24.8868 26.6836L24.9229 26.5908L28.7736 6.864C28.8829 6.37725 28.9107 5.92144 28.7901 5.47903C28.6663 5.03097 28.3788 4.64567 27.9846 4.39931C27.6541 4.19822 27.2707 4.1012 26.8843 4.12087ZM26.7801 6.23494C26.776 6.2999 26.7884 6.29269 26.7595 6.41747V6.42881L22.9449 25.9504C22.9284 25.9782 22.9006 26.0391 22.8243 26.0999C22.7438 26.1638 22.6799 26.2041 22.3447 26.071L16.2501 21.3984L12.5685 24.7541L13.3419 19.8144L23.2997 10.5332C23.7101 10.1516 23.573 10.0712 23.573 10.0712C23.6018 9.603 22.9532 9.93403 22.9532 9.93403L10.3967 17.7127L10.3926 17.6921L4.37418 15.6657V15.6616L4.35871 15.6585L4.38965 15.6461L4.42265 15.6296L4.45462 15.6183C4.45462 15.6183 9.82846 13.3537 15.291 11.054C18.0259 9.90206 20.7814 8.7419 22.9006 7.84678C24.1574 7.31775 25.4155 6.79181 26.675 6.26897C26.7595 6.23597 26.7193 6.23494 26.7801 6.23494Z" fill="#5D616C"/>
</svg>
