<svg width="28" height="28" viewBox="0 0 28 28" fill="none" xmlns="http://www.w3.org/2000/svg">
<path d="M13.421 1.6286C11.5608 1.65258 7.56156 1.97901 5.32471 4.17043C3.66083 5.93099 3.07989 8.53393 3.0118 11.7526C2.9553 14.9597 2.88721 20.9824 8.3236 22.6223V25.12C8.3236 25.12 8.28955 26.1194 8.90816 26.3244C9.6702 26.582 10.1041 25.8131 10.8285 24.987L12.1794 23.3556C15.899 23.6859 18.748 22.9247 19.0761 22.8118C19.8309 22.5542 24.0822 21.9741 24.7769 15.9506C25.4897 9.72981 24.4299 5.81032 22.5169 4.03738H22.5053C21.928 3.46961 19.6078 1.66418 14.4242 1.64407C14.4242 1.64407 14.0396 1.617 13.421 1.6286ZM13.4847 3.37756C14.0128 3.37369 14.3337 3.39767 14.3337 3.39767C18.7212 3.41005 20.8153 4.8202 21.3094 5.29515C22.9203 6.7695 23.7505 10.303 23.1427 15.4965C22.5654 20.5322 19.1174 20.8509 18.4792 21.0683C18.2076 21.1611 15.6984 21.8217 12.5372 21.6043C12.5372 21.6043 10.1831 24.6381 9.44709 25.4194C9.33047 25.5563 9.19429 25.5965 9.10736 25.5764C8.98277 25.5439 8.9451 25.3792 8.95235 25.1533L8.9748 21.0079C4.3642 19.6465 4.63583 14.5095 4.68509 11.8261C4.74159 9.1427 5.21316 6.94741 6.61698 5.46068C8.50686 3.63592 11.9027 3.38994 13.4833 3.37756H13.4847ZM13.8324 6.06017C13.7945 6.05976 13.7568 6.06738 13.7216 6.08258C13.6865 6.09778 13.6545 6.12027 13.6275 6.14874C13.6005 6.17722 13.579 6.21112 13.5643 6.24849C13.5496 6.28586 13.542 6.32597 13.5419 6.36649C13.5419 6.53976 13.6738 6.67668 13.8324 6.67668C14.5507 6.66154 15.2647 6.79868 15.933 7.08017C16.6013 7.36165 17.2107 7.78189 17.7259 8.31657C18.7784 9.40802 19.2913 10.8746 19.3108 12.7922C19.3108 12.9616 19.439 13.1024 19.6013 13.1024V13.09C19.6778 13.0902 19.7512 13.0582 19.8056 13.0008C19.86 12.9434 19.891 12.8654 19.8918 12.7837C19.9275 11.8811 19.7907 10.9801 19.4897 10.1357C19.1887 9.29134 18.7298 8.52131 18.141 7.87256C16.9943 6.6759 15.5412 6.0594 13.8324 6.0594V6.06017ZM10.0143 6.7695C9.80924 6.73738 9.60008 6.78134 9.42174 6.89404H9.40653C8.99255 7.15354 8.6195 7.48116 8.30114 7.86482C8.03675 8.19126 7.89332 8.52155 7.85565 8.83948C7.8332 9.02899 7.84841 9.21851 7.90129 9.39951L7.92012 9.41189C8.21784 10.3463 8.60682 11.2452 9.08201 12.0914C9.69428 13.2802 10.4476 14.3797 11.3232 15.3627L11.3493 15.4029L11.3906 15.4354L11.4167 15.4679L11.4471 15.4957C12.371 16.4335 13.4031 17.2417 14.5184 17.9006C15.7933 18.6417 16.5669 18.9921 17.0312 19.1375V19.1453C17.1674 19.1893 17.2913 19.2095 17.4159 19.2095C17.8116 19.1786 18.1863 19.007 18.48 18.7221C18.8384 18.3829 19.1419 17.9828 19.3782 17.5379V17.5301C19.6006 17.083 19.5252 16.6599 19.2043 16.3737C18.5616 15.7739 17.8667 15.2411 17.129 14.7825C16.635 14.4963 16.133 14.6696 15.9295 14.9597L15.4956 15.5437C15.2732 15.8338 14.869 15.7935 14.869 15.7935L14.8574 15.8013C11.8433 14.979 11.0393 11.7201 11.0393 11.7201C11.0393 11.7201 11.0016 11.2769 11.2805 11.051L11.8237 10.5838C12.0838 10.3579 12.2649 9.82264 11.986 9.29431C11.5596 8.50545 11.0618 7.76317 10.4996 7.07814C10.3767 6.91665 10.2043 6.80678 10.0128 6.76795L10.0143 6.7695ZM14.3337 7.68846C13.949 7.68846 13.949 8.30883 14.3373 8.30883C15.3032 8.3259 16.2232 8.75188 16.895 9.49311C17.1984 9.85049 17.4316 10.2693 17.5806 10.7246C17.7297 11.18 17.7917 11.6626 17.7628 12.144C17.7642 12.2255 17.7953 12.3032 17.8496 12.3604C17.9039 12.4177 17.977 12.4499 18.0533 12.4503L18.0649 12.4666C18.1418 12.466 18.2153 12.4331 18.2697 12.375C18.324 12.317 18.3548 12.2385 18.3554 12.1564C18.3815 10.9272 18.0236 9.89612 17.3217 9.06999C16.6162 8.24386 15.6318 7.78051 14.375 7.68846H14.3337ZM14.8096 9.3562C14.4134 9.34382 14.3982 9.97657 14.7908 9.98895C15.7455 10.0415 16.2091 10.5567 16.2699 11.6165C16.2716 11.6968 16.3025 11.7732 16.356 11.8297C16.4096 11.8861 16.4815 11.9181 16.5568 11.9189H16.5684C16.6071 11.9171 16.6451 11.9071 16.6802 11.8895C16.7153 11.8719 16.7467 11.847 16.7727 11.8162C16.7986 11.7855 16.8186 11.7495 16.8314 11.7104C16.8442 11.6713 16.8496 11.6299 16.8472 11.5886C16.7792 10.2071 16.0736 9.42891 14.8212 9.35697L14.8096 9.3562Z" fill="#5D616C"/>
</svg>
