<svg width="30" height="30" viewBox="0 0 30 30" fill="none" xmlns="http://www.w3.org/2000/svg">
<path d="M17.2425 3.30251C23.0925 4.42751 27.0675 9.49501 26.8675 15.5188C26.6838 21.0738 22.19 25.9163 16.53 26.61C14.2569 26.897 11.9493 26.5238 9.8825 25.535C9.55201 25.3912 9.18457 25.3553 8.8325 25.4325C7.1375 25.8388 5.45625 26.3 3.77 26.7388C3.585 26.7863 3.395 26.8188 3.125 26.875C3.63125 25.0225 4.10375 23.245 4.60875 21.475C4.7375 21.0275 4.70125 20.67 4.495 20.2313C2.52625 16.05 2.6975 11.9475 5.38 8.15626C8.06875 4.35376 11.8637 2.73126 16.53 3.20626C16.75 3.22751 16.9688 3.25876 17.2425 3.30251ZM24.635 17.0575C24.97 15.6875 25.01 14.2988 24.6825 12.935C23.6975 8.82501 21.14 6.16126 16.9825 5.31876C12.9038 4.49376 9.47875 5.86876 7.0625 9.24126C4.6425 12.6188 4.59 16.2413 6.5875 19.87C6.84375 20.3363 6.9125 20.72 6.75625 21.2175C6.47125 22.1275 6.25 23.0575 5.97125 24.09C7.1275 23.79 8.14125 23.5025 9.16875 23.2775C9.46 23.2138 9.84125 23.2475 10.0962 23.3875C15.9662 26.6188 22.9438 23.6375 24.635 17.0575Z" fill="#5D616C"/>
<path d="M12.1815 10.1975C12.4052 10.7313 12.5565 11.2475 12.819 11.7013C13.194 12.3488 13.0802 12.8925 12.5627 13.3488C12.0065 13.8388 12.089 14.255 12.4877 14.8175C13.4065 16.1125 14.5602 17.0838 16.0165 17.72C16.4165 17.895 16.7202 17.925 16.979 17.5238C17.0865 17.3588 17.2365 17.2238 17.3615 17.0688C18.0902 16.1613 17.8615 16.1688 19.0165 16.67C19.3802 16.8288 19.744 16.9975 20.0802 17.205C20.4177 17.4113 20.9302 17.6238 20.9952 17.9175C21.1427 18.5675 20.9352 19.2275 20.3927 19.71C19.3927 20.6 18.2427 20.7475 16.9865 20.4C14.269 19.65 12.179 18.02 10.5777 15.7625C10.0127 14.9663 9.50771 14.0825 9.19021 13.165C8.80521 12.0475 9.07771 10.97 9.87271 10.0238C10.3415 9.46751 10.9102 9.3425 11.529 9.49125C11.7777 9.55125 11.9515 9.92126 12.1815 10.1975Z" fill="#5D616C"/>
</svg>
