<?xml version="1.0" encoding="utf-8"?><svg xmlns="http://www.w3.org/2000/svg" xmlns:xlink="http://www.w3.org/1999/xlink"><symbol viewBox="0 0 27 23" id="arrow-slider" xmlns="http://www.w3.org/2000/svg"><path d="M.94 10.94a1.5 1.5 0 0 0 0 2.12l9.545 9.547a1.5 1.5 0 1 0 2.122-2.122L4.12 12l8.486-8.485a1.5 1.5 0 1 0-2.122-2.122L.94 10.94zM27 10.5H2v3h25v-3z"/></symbol><symbol viewBox="0 0 28 28" id="facebook" xmlns="http://www.w3.org/2000/svg"><path d="M27.5 15.076C27.5 8.13 21.904 2.5 15 2.5S2.5 8.13 2.5 15.076c0 6.278 4.57 11.48 10.547 12.424v-8.788H9.873v-3.637h3.174v-2.77c0-3.152 1.865-4.893 4.721-4.893 1.367 0 2.799.245 2.799.245v3.095h-1.578c-1.552 0-2.036.97-2.036 1.965v2.359h3.467l-.554 3.635h-2.913V27.5C22.93 26.557 27.5 21.354 27.5 15.076z"/></symbol><symbol viewBox="0 0 26 26" id="instagram" xmlns="http://www.w3.org/2000/svg"><path d="M15 20a5 5 0 1 0 0-10 5 5 0 0 0 0 10z"/><path d="M3.75 20V10A6.25 6.25 0 0 1 10 3.75h10A6.25 6.25 0 0 1 26.25 10v10A6.25 6.25 0 0 1 20 26.25H10A6.25 6.25 0 0 1 3.75 20zM21.875 8.138l.013-.014"/></symbol><symbol viewBox="0 0 23 22" id="play" xmlns="http://www.w3.org/2000/svg"><path d="M21.409 9.353a2.998 2.998 0 0 1 0 5.294L8.597 21.614C6.534 22.737 4 21.277 4 18.968V5.033c0-2.31 2.534-3.769 4.597-2.648l12.812 6.968z"/></symbol><symbol viewBox="0 0 29 28" id="telegram" xmlns="http://www.w3.org/2000/svg"><path d="M26.884 4.12a3.094 3.094 0 0 0-.962.23h-.004c-.294.117-1.691.705-3.816 1.596L14.49 9.152c-5.463 2.3-10.833 4.565-10.833 4.565l.064-.025s-.37.122-.757.387c-.239.151-.445.35-.604.584-.19.279-.342.705-.286 1.145.093.745.576 1.191.922 1.438.351.25.685.366.685.366h.008l5.036 1.696c.226.725 1.534 5.027 1.85 6.018.185.592.365.963.591 1.245.108.145.238.265.39.362.08.048.165.085.255.11l-.052-.013c.015.004.028.017.04.02.04.012.068.016.12.024.798.242 1.438-.253 1.438-.253l.037-.03 2.973-2.706 4.983 3.823.113.048c1.038.456 2.09.202 2.646-.245.56-.45.778-1.027.778-1.027l.036-.093 3.85-19.727c.11-.487.138-.943.017-1.385a1.856 1.856 0 0 0-.805-1.08 1.928 1.928 0 0 0-1.1-.278zm-.104 2.115c-.004.065.008.058-.02.182v.012L22.944 25.95c-.017.028-.044.09-.12.15-.081.064-.145.104-.48-.029l-6.095-4.673-3.681 3.356.773-4.94 9.958-9.28c.41-.382.273-.463.273-.463.029-.468-.62-.137-.62-.137l-12.556 7.779-.004-.02-6.019-2.027v-.004l-.015-.004.03-.012.034-.016.032-.012 10.836-4.564c2.735-1.152 5.49-2.312 7.61-3.207a826.152 826.152 0 0 1 3.774-1.578c.084-.033.044-.034.105-.034z"/></symbol><symbol viewBox="0 0 25 26" id="viber" xmlns="http://www.w3.org/2000/svg"><path d="M13.421 1.629c-1.86.024-5.86.35-8.096 2.541C3.66 5.931 3.08 8.534 3.012 11.753c-.057 3.207-.125 9.23 5.312 10.87v2.497s-.034 1 .584 1.204c.762.258 1.196-.51 1.92-1.337l1.351-1.631c3.72.33 6.569-.431 6.897-.544.755-.258 5.006-.838 5.7-6.861.714-6.221-.346-10.14-2.26-11.914h-.01c-.578-.567-2.898-2.373-8.082-2.393 0 0-.384-.027-1.003-.015zm.064 1.749c.528-.004.849.02.849.02 4.387.012 6.481 1.422 6.975 1.897 1.611 1.474 2.441 5.008 1.834 10.201-.578 5.036-4.026 5.355-4.664 5.572-.271.093-2.78.754-5.942.536 0 0-2.354 3.034-3.09 3.815-.117.137-.253.177-.34.157-.124-.032-.162-.197-.155-.423l.023-4.145c-4.61-1.361-4.34-6.498-4.29-9.182.057-2.683.528-4.879 1.932-6.365 1.89-1.825 5.286-2.071 6.866-2.083h.002zm.347 2.682a.272.272 0 0 0-.205.089.31.31 0 0 0-.085.217c0 .174.132.31.29.31a5.128 5.128 0 0 1 2.101.404 5.408 5.408 0 0 1 1.793 1.237c1.052 1.091 1.565 2.558 1.585 4.475 0 .17.128.31.29.31v-.012a.28.28 0 0 0 .205-.09.32.32 0 0 0 .086-.216 7.064 7.064 0 0 0-.402-2.648 6.725 6.725 0 0 0-1.349-2.263c-1.147-1.197-2.6-1.814-4.309-1.814v.001zm-3.818.71a.858.858 0 0 0-.592.124h-.015a4.68 4.68 0 0 0-1.106.97c-.264.327-.408.658-.445.975-.023.19-.008.38.045.56l.02.013c.297.934.686 1.833 1.161 2.68a15.776 15.776 0 0 0 2.241 3.27l.026.04.042.033.026.033.03.028a15.088 15.088 0 0 0 3.071 2.405c1.275.74 2.049 1.091 2.513 1.236v.008c.136.044.26.064.385.064.396-.03.77-.202 1.064-.487a4.6 4.6 0 0 0 .898-1.184v-.008c.223-.447.147-.87-.174-1.156a13.452 13.452 0 0 0-2.075-1.591c-.494-.287-.996-.113-1.2.177l-.433.584c-.223.29-.627.25-.627.25l-.012.007c-3.014-.822-3.818-4.08-3.818-4.08s-.037-.444.242-.67l.543-.467c.26-.226.44-.761.162-1.29A13.944 13.944 0 0 0 10.5 7.078a.818.818 0 0 0-.487-.31l.001.002zm4.32.918c-.385 0-.385.62.003.62a3.538 3.538 0 0 1 2.558 1.185c.303.357.537.776.686 1.232.149.455.21.938.182 1.419.001.082.032.16.087.216.054.058.127.09.203.09l.012.017a.287.287 0 0 0 .205-.092.324.324 0 0 0 .085-.219c.026-1.229-.331-2.26-1.033-3.086-.706-.826-1.69-1.29-2.947-1.382h-.041zm.476 1.668c-.397-.012-.412.62-.02.633.956.052 1.42.568 1.48 1.627a.32.32 0 0 0 .086.214.281.281 0 0 0 .2.089h.012a.278.278 0 0 0 .205-.103.317.317 0 0 0 .074-.227c-.068-1.382-.773-2.16-2.026-2.232h-.011z"/></symbol><symbol viewBox="0 0 27 27" id="whatsapp" xmlns="http://www.w3.org/2000/svg"><path d="M17.242 3.303c5.85 1.125 9.825 6.192 9.625 12.216-.183 5.555-4.677 10.397-10.337 11.091a11.938 11.938 0 0 1-6.648-1.075 1.712 1.712 0 0 0-1.05-.102c-1.695.406-3.376.867-5.062 1.306-.185.047-.375.08-.645.136.506-1.852.979-3.63 1.484-5.4.128-.448.092-.805-.114-1.244-1.969-4.181-1.798-8.284.885-12.075 2.689-3.802 6.484-5.425 11.15-4.95.22.022.439.053.712.097zm7.393 13.755c.335-1.37.375-2.76.047-4.123-.984-4.11-3.542-6.774-7.7-7.616-4.078-.825-7.503.55-9.92 3.922-2.42 3.378-2.472 7-.474 10.629.256.466.324.85.168 1.348-.285.91-.506 1.84-.785 2.872 1.157-.3 2.17-.587 3.198-.813.291-.063.672-.03.927.11 5.87 3.232 12.848.25 14.539-6.33z"/><path d="M12.181 10.197c.224.534.376 1.05.638 1.504.375.648.261 1.191-.256 1.648-.556.49-.474.906-.075 1.469.918 1.295 2.072 2.266 3.529 2.902.4.175.703.205.962-.196.108-.165.258-.3.383-.455.728-.908.5-.9 1.655-.399a8.47 8.47 0 0 1 1.063.535c.338.206.85.419.915.713.148.65-.06 1.31-.602 1.792-1 .89-2.15 1.037-3.407.69-2.717-.75-4.807-2.38-6.408-4.637-.565-.797-1.07-1.68-1.388-2.598-.385-1.117-.112-2.195.683-3.141.469-.556 1.037-.681 1.656-.533.249.06.422.43.652.707z"/></symbol></svg>