<?xml version="1.0" encoding="utf-8"?><svg xmlns="http://www.w3.org/2000/svg" xmlns:xlink="http://www.w3.org/1999/xlink"><symbol viewBox="0 0 27 23" id="arrow-slider" xmlns="http://www.w3.org/2000/svg"><path d="M.94 10.94a1.5 1.5 0 0 0 0 2.12l9.545 9.547a1.5 1.5 0 1 0 2.122-2.122L4.12 12l8.486-8.485a1.5 1.5 0 1 0-2.122-2.122L.94 10.94zM27 10.5H2v3h25v-3z"/></symbol><symbol viewBox="0 0 28 28" id="facebook" xmlns="http://www.w3.org/2000/svg"><path d="M27.5 15.076C27.5 8.13 21.904 2.5 15 2.5S2.5 8.13 2.5 15.076c0 6.278 4.57 11.48 10.547 12.424v-8.788H9.873v-3.637h3.174v-2.77c0-3.152 1.865-4.893 4.721-4.893 1.367 0 2.799.245 2.799.245v3.095h-1.578c-1.552 0-2.036.97-2.036 1.965v2.359h3.467l-.554 3.635h-2.913V27.5C22.93 26.557 27.5 21.354 27.5 15.076z"/></symbol><symbol viewBox="0 0 28 28" id="instagram" xmlns="http://www.w3.org/2000/svg"><path d="M14.5 20.333a5.833 5.833 0 1 0 0-11.667 5.833 5.833 0 0 0 0 11.667z"/><path d="M1.375 20.333V8.667a7.292 7.292 0 0 1 7.292-7.292h11.666a7.292 7.292 0 0 1 7.292 7.292v11.666a7.291 7.291 0 0 1-7.292 7.292H8.667a7.291 7.291 0 0 1-7.292-7.292zM22.52 6.493l.014-.015"/></symbol><symbol viewBox="0 0 29 28" id="telegram" xmlns="http://www.w3.org/2000/svg"><path d="M26.884 4.12a3.094 3.094 0 0 0-.962.23h-.004c-.294.117-1.691.705-3.816 1.596L14.49 9.152c-5.463 2.3-10.833 4.565-10.833 4.565l.064-.025s-.37.122-.757.387c-.239.151-.445.35-.604.584-.19.279-.342.705-.286 1.145.093.745.576 1.191.922 1.438.351.25.685.366.685.366h.008l5.036 1.696c.226.725 1.534 5.027 1.85 6.018.185.592.365.963.591 1.245.108.145.238.265.39.362.08.048.165.085.255.11l-.052-.013c.015.004.028.017.04.02.04.012.068.016.12.024.798.242 1.438-.253 1.438-.253l.037-.03 2.973-2.706 4.983 3.823.113.048c1.038.456 2.09.202 2.646-.245.56-.45.778-1.027.778-1.027l.036-.093 3.85-19.727c.11-.487.138-.943.017-1.385a1.856 1.856 0 0 0-.805-1.08 1.928 1.928 0 0 0-1.1-.278zm-.104 2.115c-.004.065.008.058-.02.182v.012L22.944 25.95c-.017.028-.044.09-.12.15-.081.064-.145.104-.48-.029l-6.095-4.673-3.681 3.356.773-4.94 9.958-9.28c.41-.382.273-.463.273-.463.029-.468-.62-.137-.62-.137l-12.556 7.779-.004-.02-6.019-2.027v-.004l-.015-.004.03-.012.034-.016.032-.012 10.836-4.564c2.735-1.152 5.49-2.312 7.61-3.207a826.152 826.152 0 0 1 3.774-1.578c.084-.033.044-.034.105-.034z"/></symbol><symbol viewBox="0 0 27 27" id="whatsapp" xmlns="http://www.w3.org/2000/svg"><path d="M17.242 3.303c5.85 1.125 9.825 6.192 9.625 12.216-.183 5.555-4.677 10.397-10.337 11.091a11.938 11.938 0 0 1-6.648-1.075 1.712 1.712 0 0 0-1.05-.102c-1.695.406-3.376.867-5.062 1.306-.185.047-.375.08-.645.136.506-1.852.979-3.63 1.484-5.4.128-.448.092-.805-.114-1.244-1.969-4.181-1.798-8.284.885-12.075 2.689-3.802 6.484-5.425 11.15-4.95.22.022.439.053.712.097zm7.393 13.755c.335-1.37.375-2.76.047-4.123-.984-4.11-3.542-6.774-7.7-7.616-4.078-.825-7.503.55-9.92 3.922-2.42 3.378-2.472 7-.474 10.629.256.466.324.85.168 1.348-.285.91-.506 1.84-.785 2.872 1.157-.3 2.17-.587 3.198-.813.291-.063.672-.03.927.11 5.87 3.232 12.848.25 14.539-6.33z"/><path d="M12.181 10.197c.224.534.376 1.05.638 1.504.375.648.261 1.191-.256 1.648-.556.49-.474.906-.075 1.469.918 1.295 2.072 2.266 3.529 2.902.4.175.703.205.962-.196.108-.165.258-.3.383-.455.728-.908.5-.9 1.655-.399a8.47 8.47 0 0 1 1.063.535c.338.206.85.419.915.713.148.65-.06 1.31-.602 1.792-1 .89-2.15 1.037-3.407.69-2.717-.75-4.807-2.38-6.408-4.637-.565-.797-1.07-1.68-1.388-2.598-.385-1.117-.112-2.195.683-3.141.469-.556 1.037-.681 1.656-.533.249.06.422.43.652.707z"/></symbol></svg>